<svg xmlns="http://www.w3.org/2000/svg" version="1.1" xmlns:xlink="http://www.w3.org/1999/xlink" xmlns:svgjs="http://svgjs.dev/svgjs" width="1500" height="962" viewBox="0 0 1500 962"><g transform="matrix(1,0,0,1,0.09936040044601668,0.3894736842104862)"><svg viewBox="0 0 385 247" data-background-color="#ffffff" preserveAspectRatio="xMidYMid meet" height="962" width="1500" xmlns="http://www.w3.org/2000/svg" xmlns:xlink="http://www.w3.org/1999/xlink"><g id="tight-bounds" transform="matrix(1,0,0,1,-0.025502502781137082,-0.09999999999999432)"><svg viewBox="0 0 385.0510050055623 247.2" height="247.2" width="385.0510050055623"><g><svg viewBox="0 0 395.52 253.921020147935" height="247.2" width="385.0510050055623"><g transform="matrix(1,0,0,1,0,182.05734657730372)"><svg viewBox="0 0 395.52 71.86367357063128" height="71.86367357063128" width="395.52"><g id="textblocktransform"><svg viewBox="0 0 395.52 71.86367357063128" height="71.86367357063128" width="395.52" id="textblock"><g><svg viewBox="0 0 395.52 71.86367357063128" height="71.86367357063128" width="395.52"><g transform="matrix(1,0,0,1,0,0)"><svg width="395.52" viewBox="2.25 -36.23 201.56 36.629999999999995" height="71.86367357063128" data-palette-color="#1e324b"><path d="M29.6-7.4L29.6-7.4Q30-7.4 30.33-7.08L30.33-7.08 32.23-5Q30.03-2.45 26.89-1.03 23.75 0.4 19.33 0.4L19.33 0.4Q15.45 0.4 12.3-0.94 9.15-2.27 6.93-4.69 4.7-7.1 3.48-10.48 2.25-13.85 2.25-17.9L2.25-17.9Q2.25-21.95 3.56-25.33 4.88-28.7 7.25-31.13 9.63-33.55 12.94-34.89 16.25-36.23 20.25-36.23L20.25-36.23Q24.2-36.23 27.06-35 29.93-33.77 32.15-31.68L32.15-31.68 30.58-29.45Q30.4-29.2 30.18-29.04 29.95-28.88 29.53-28.88L29.53-28.88Q29.2-28.88 28.84-29.11 28.48-29.35 27.98-29.7 27.48-30.05 26.8-30.45 26.13-30.85 25.2-31.2 24.28-31.55 23.05-31.79 21.83-32.02 20.23-32.02L20.23-32.02Q17.35-32.02 14.96-31.04 12.58-30.05 10.85-28.23 9.13-26.4 8.16-23.78 7.2-21.15 7.2-17.9L7.2-17.9Q7.2-14.55 8.16-11.93 9.13-9.3 10.79-7.49 12.45-5.68 14.73-4.73 17-3.78 19.63-3.78L19.63-3.78Q21.23-3.78 22.5-3.96 23.78-4.15 24.86-4.55 25.95-4.95 26.89-5.56 27.83-6.18 28.78-7.03L28.78-7.03Q29.2-7.4 29.6-7.4ZM42.35 0L37.9 0 37.9-25.33 40.45-25.33Q41.17-25.33 41.45-25.05 41.72-24.78 41.82-24.1L41.82-24.1 42.12-20.15Q43.42-22.8 45.34-24.29 47.25-25.78 49.82-25.78L49.82-25.78Q50.87-25.78 51.72-25.54 52.57-25.3 53.3-24.88L53.3-24.88 52.72-21.55Q52.55-20.93 51.95-20.93L51.95-20.93Q51.6-20.93 50.87-21.16 50.15-21.4 48.85-21.4L48.85-21.4Q46.52-21.4 44.96-20.05 43.4-18.7 42.35-16.13L42.35-16.13 42.35 0ZM68.3-25.73L68.3-25.73Q71.07-25.73 73.31-24.8 75.55-23.88 77.11-22.18 78.67-20.48 79.51-18.06 80.35-15.65 80.35-12.68L80.35-12.68Q80.35-9.68 79.51-7.28 78.67-4.88 77.11-3.18 75.55-1.48 73.31-0.56 71.07 0.35 68.3 0.35L68.3 0.35Q65.52 0.35 63.28-0.56 61.05-1.48 59.47-3.18 57.9-4.88 57.05-7.28 56.2-9.68 56.2-12.68L56.2-12.68Q56.2-15.65 57.05-18.06 57.9-20.48 59.47-22.18 61.05-23.88 63.28-24.8 65.52-25.73 68.3-25.73ZM68.3-3.13L68.3-3.13Q72.05-3.13 73.9-5.64 75.75-8.15 75.75-12.65L75.75-12.65Q75.75-17.18 73.9-19.7 72.05-22.23 68.3-22.23L68.3-22.23Q66.4-22.23 65-21.58 63.6-20.93 62.66-19.7 61.72-18.48 61.26-16.69 60.8-14.9 60.8-12.65L60.8-12.65Q60.8-10.4 61.26-8.63 61.72-6.85 62.66-5.64 63.6-4.42 65-3.78 66.4-3.13 68.3-3.13ZM90.29 0L85.84 0 85.84-25.33 88.49-25.33Q89.44-25.33 89.69-24.4L89.69-24.4 90.04-21.65Q91.69-23.48 93.73-24.6 95.77-25.73 98.44-25.73L98.44-25.73Q100.52-25.73 102.11-25.04 103.69-24.35 104.76-23.09 105.82-21.83 106.37-20.05 106.92-18.28 106.92-16.13L106.92-16.13 106.92 0 102.47 0 102.47-16.13Q102.47-19 101.16-20.59 99.84-22.18 97.14-22.18L97.14-22.18Q95.17-22.18 93.46-21.23 91.74-20.28 90.29-18.65L90.29-18.65 90.29 0ZM123.89-25.73L123.89-25.73Q126.67-25.73 128.9-24.8 131.14-23.88 132.7-22.18 134.27-20.48 135.1-18.06 135.94-15.65 135.94-12.68L135.94-12.68Q135.94-9.68 135.1-7.28 134.27-4.88 132.7-3.18 131.14-1.48 128.9-0.56 126.67 0.35 123.89 0.35L123.89 0.35Q121.12 0.35 118.88-0.56 116.64-1.48 115.07-3.18 113.49-4.88 112.64-7.28 111.79-9.68 111.79-12.68L111.79-12.68Q111.79-15.65 112.64-18.06 113.49-20.48 115.07-22.18 116.64-23.88 118.88-24.8 121.12-25.73 123.89-25.73ZM123.89-3.13L123.89-3.13Q127.64-3.13 129.49-5.64 131.34-8.15 131.34-12.65L131.34-12.65Q131.34-17.18 129.49-19.7 127.64-22.23 123.89-22.23L123.89-22.23Q121.99-22.23 120.59-21.58 119.19-20.93 118.25-19.7 117.32-18.48 116.85-16.69 116.39-14.9 116.39-12.65L116.39-12.65Q116.39-10.4 116.85-8.63 117.32-6.85 118.25-5.64 119.19-4.42 120.59-3.78 121.99-3.13 123.89-3.13ZM149.11 0.4L149.11 0.4Q146.11 0.4 144.5-1.28 142.89-2.95 142.89-6.1L142.89-6.1 142.89-21.6 139.84-21.6Q139.44-21.6 139.16-21.84 138.89-22.08 138.89-22.58L138.89-22.58 138.89-24.35 143.04-24.88 144.06-32.7Q144.11-33.08 144.39-33.31 144.66-33.55 145.09-33.55L145.09-33.55 147.34-33.55 147.34-24.83 154.59-24.83 154.59-21.6 147.34-21.6 147.34-6.4Q147.34-4.8 148.11-4.03 148.89-3.25 150.11-3.25L150.11-3.25Q150.81-3.25 151.33-3.44 151.84-3.63 152.21-3.85 152.59-4.08 152.85-4.26 153.11-4.45 153.31-4.45L153.31-4.45Q153.66-4.45 153.94-4.03L153.94-4.03 155.24-1.9Q154.09-0.83 152.46-0.21 150.84 0.4 149.11 0.4ZM159.49-25.33L163.94-25.33 163.94-9.18Q163.94-6.3 165.26-4.73 166.59-3.15 169.26-3.15L169.26-3.15Q171.21-3.15 172.94-4.08 174.66-5 176.11-6.65L176.11-6.65 176.11-25.33 180.56-25.33 180.56 0 177.91 0Q176.96 0 176.71-0.93L176.71-0.93 176.36-3.65Q174.71-1.83 172.66-0.71 170.61 0.4 167.96 0.4L167.96 0.4Q165.89 0.4 164.3-0.29 162.71-0.98 161.64-2.23 160.56-3.48 160.02-5.25 159.49-7.03 159.49-9.18L159.49-9.18 159.49-25.33ZM203.38-22.78L202.38-21.15Q202.08-20.6 201.46-20.6L201.46-20.6Q201.08-20.6 200.61-20.88 200.13-21.15 199.45-21.49 198.76-21.83 197.81-22.11 196.86-22.4 195.56-22.4L195.56-22.4Q194.43-22.4 193.53-22.11 192.63-21.83 192-21.33 191.36-20.83 191.02-20.16 190.68-19.5 190.68-18.73L190.68-18.73Q190.68-17.75 191.25-17.1 191.81-16.45 192.73-15.98 193.66-15.5 194.83-15.14 196.01-14.78 197.25-14.36 198.48-13.95 199.66-13.45 200.83-12.95 201.76-12.2 202.68-11.45 203.25-10.36 203.81-9.28 203.81-7.75L203.81-7.75Q203.81-6 203.18-4.51 202.56-3.03 201.33-1.94 200.11-0.85 198.33-0.23 196.56 0.4 194.23 0.4L194.23 0.4Q191.58 0.4 189.43-0.46 187.28-1.33 185.78-2.68L185.78-2.68 186.83-4.38Q187.03-4.7 187.31-4.88 187.58-5.05 188.03-5.05L188.03-5.05Q188.48-5.05 188.98-4.7 189.48-4.35 190.2-3.93 190.91-3.5 191.92-3.15 192.93-2.8 194.46-2.8L194.46-2.8Q195.76-2.8 196.73-3.14 197.71-3.48 198.36-4.05 199.01-4.63 199.32-5.38 199.63-6.13 199.63-6.98L199.63-6.98Q199.63-8.03 199.07-8.71 198.51-9.4 197.58-9.89 196.66-10.38 195.47-10.74 194.28-11.1 193.05-11.5 191.81-11.9 190.62-12.41 189.43-12.93 188.51-13.7 187.58-14.48 187.02-15.61 186.46-16.75 186.46-18.38L186.46-18.38Q186.46-19.83 187.06-21.16 187.66-22.5 188.81-23.51 189.96-24.53 191.63-25.13 193.31-25.73 195.46-25.73L195.46-25.73Q197.96-25.73 199.95-24.94 201.93-24.15 203.38-22.78L203.38-22.78Z" opacity="1" transform="matrix(1,0,0,1,0,0)" fill="#1e324b" class="wordmark-text-0" data-fill-palette-color="primary" id="text-0"></path></svg></g></svg></g></svg></g></svg></g><g transform="matrix(1,0,0,1,115.21397101227831,0)"><svg viewBox="0 0 165.09205797544337 165.09205797544337" height="165.09205797544337" width="165.09205797544337"><g><svg></svg></g><g id="icon-0"><svg viewBox="0 0 165.09205797544337 165.09205797544337" height="165.09205797544337" width="165.09205797544337"><g><rect width="150.11148234433833" height="150.11148234433833" x="7.49028781555252" y="7.49028781555252" fill="#1e324b" data-fill-palette-color="accent"></rect><rect width="150.11148234433833" height="150.11148234433833" x="-2.6645352591003757e-15" y="14.980575631105044" fill="#1e324b" opacity="0.5" data-fill-palette-color="accent"></rect></g><g transform="matrix(1,0,0,1,43.40865627162856,21.400822330150064)"><svg viewBox="0 0 78.27474543218625 122.29041331514324" height="122.29041331514324" width="78.27474543218625"><g><svg xmlns="http://www.w3.org/2000/svg" xmlns:xlink="http://www.w3.org/1999/xlink" version="1.1" x="0" y="0" viewBox="21.62 5.66 56.760999999999996 88.67900000000002" enable-background="new 0 0 100 100" xml:space="preserve" height="122.29041331514324" width="78.27474543218625" class="icon-cg-0" data-fill-palette-color="quaternary" id="cg-0"><g fill="#ffffff" data-fill-palette-color="quaternary"><g fill="#ffffff" data-fill-palette-color="quaternary"><g fill="#ffffff" data-fill-palette-color="quaternary"><g fill="#ffffff" data-fill-palette-color="quaternary"><g fill="#ffffff" data-fill-palette-color="quaternary"><g fill="#ffffff" data-fill-palette-color="quaternary"><g fill="#ffffff" data-fill-palette-color="quaternary"><g fill="#ffffff" data-fill-palette-color="quaternary"><g fill="#ffffff" data-fill-palette-color="quaternary"><g fill="#ffffff" data-fill-palette-color="quaternary"><g fill="#ffffff" data-fill-palette-color="quaternary"><g fill="#ffffff" data-fill-palette-color="quaternary"><g fill="#ffffff" data-fill-palette-color="quaternary"><g fill="#ffffff" data-fill-palette-color="quaternary"><g fill="#ffffff" data-fill-palette-color="quaternary"><g fill="#ffffff" data-fill-palette-color="quaternary"><g fill="#ffffff" data-fill-palette-color="quaternary"><g fill="#ffffff" data-fill-palette-color="quaternary"><g fill="#ffffff" data-fill-palette-color="quaternary"><g fill="#ffffff" data-fill-palette-color="quaternary"><g fill="#ffffff" data-fill-palette-color="quaternary"><path fill="none" d="M44.612 12.766c0.004 0 0.008 0 0.014 0 0.004 0 0.008 0 0.012 0H44.612z"></path><path d="M57.321 6.63c-2.34-0.63-4.801-0.97-7.33-0.97-2.221 0-4.381 0.26-6.461 0.76C31.01 9.35 21.62 20.63 21.62 34.029c0 6.891 3.3 15.341 6 20.44 3.72 6.819 15.65 27.94 19.18 34.22l3.211 5.65 3.09-5.58c0.131-0.141 14.539-25.84 19.35-34.21 2.871-5.03 5.93-13.92 5.93-20.521C78.38 20.939 69.411 9.87 57.321 6.63zM66.231 50.99c-0.83 1.47-1.951 3.439-3.23 5.7-0.051 0.1-0.111 0.199-0.17 0.31-3.961 7-9.391 16.629-12.84 22.82-3.561-6.23-9.02-15.971-12.82-22.82-0.061-0.1-0.119-0.2-0.17-0.3-1.279-2.311-2.359-4.271-3.101-5.63-2.561-4.73-5.19-11.86-5.19-17.041 0-9.25 6.012-17.17 14.311-20.069 2.189-0.771 4.541-1.19 6.98-1.19 2.66 0 5.25 0.5 7.67 1.451 2.699 1.049 5.189 2.67 7.311 4.789 3.988 4.061 6.209 9.301 6.209 15.02C71.19 39.15 68.571 46.85 66.231 50.99z" fill="#ffffff" data-fill-palette-color="quaternary"></path></g></g></g></g></g></g></g></g></g><path d="M37.171 57h-0.17v-0.3C37.052 56.8 37.11 56.9 37.171 57z" fill="#ffffff" data-fill-palette-color="quaternary"></path><path d="M63.001 56.69V57h-0.17C62.89 56.89 62.95 56.79 63.001 56.69z" fill="#ffffff" data-fill-palette-color="quaternary"></path></g></g></g></g></g></g></g></g></g></g></g><g fill="#ffffff" data-fill-palette-color="quaternary"><path d="M35.705 25.588c-0.237 0.347-0.465 0.701-0.68 1.07-0.184 0.319-0.353 0.642-0.515 0.966 0.162-0.325 0.334-0.647 0.518-0.964C35.242 26.291 35.469 25.935 35.705 25.588z" fill="#ffffff" data-fill-palette-color="quaternary"></path><path d="M58.675 20.36c-0.576-0.334-1.163-0.627-1.76-0.888 0.596 0.261 1.183 0.557 1.758 0.891 1.944 1.125 3.582 2.576 4.895 4.241 0.264 0.333 0.517 0.674 0.754 1.022 2.646 3.919 3.608 8.819 2.563 13.493-0.074 0.326-0.157 0.651-0.251 0.975C68.771 32.647 65.685 24.422 58.675 20.36z" fill="#ffffff" data-fill-palette-color="quaternary"></path><path d="M66.281 41.18c-0.109 0.306-0.228 0.611-0.354 0.913C66.056 41.792 66.172 41.486 66.281 41.18z" fill="#ffffff" data-fill-palette-color="quaternary"></path><path d="M66.604 40.187c-0.08 0.278-0.168 0.553-0.264 0.826C66.437 40.739 66.523 40.464 66.604 40.187z" fill="#ffffff" data-fill-palette-color="quaternary"></path><path d="M64.302 45.068c0.233-0.344 0.461-0.693 0.672-1.058 0.361-0.623 0.674-1.26 0.948-1.905-0.274 0.645-0.591 1.281-0.951 1.903C64.759 44.374 64.535 44.725 64.302 45.068z" fill="#ffffff" data-fill-palette-color="quaternary"></path><path d="M63.504 46.143c-0.175 0.22-0.354 0.435-0.538 0.644C63.15 46.578 63.329 46.363 63.504 46.143z" fill="#ffffff" data-fill-palette-color="quaternary"></path><path d="M64.256 45.135c-0.192 0.282-0.395 0.554-0.601 0.82C63.861 45.689 64.063 45.417 64.256 45.135z" fill="#ffffff" data-fill-palette-color="quaternary"></path><path d="M56.681 51.284c-4.375 1.827-9.449 1.847-13.981-0.268-0.426-0.197-0.847-0.413-1.261-0.649-0.037-0.021-0.076-0.04-0.113-0.063-0.194-0.112-0.385-0.229-0.574-0.348 0.189 0.119 0.377 0.239 0.571 0.351 7.208 4.175 16.17 2.565 21.527-3.392-1.447 1.606-3.159 2.896-5.03 3.841C57.445 50.946 57.067 51.123 56.681 51.284z" fill="#ffffff" data-fill-palette-color="quaternary"></path><path d="M33.7 41.102c-1.042-2.949-1.285-6.167-0.637-9.295 0.075-0.359 0.158-0.718 0.256-1.074-1.558 5.631-0.138 11.681 3.691 16.031-1.209-1.376-2.178-2.922-2.888-4.571C33.967 41.834 33.829 41.47 33.7 41.102z" fill="#ffffff" data-fill-palette-color="quaternary"></path><path d="M39.473 49.065c-0.274-0.208-0.536-0.426-0.794-0.649C38.937 48.639 39.199 48.857 39.473 49.065z" fill="#ffffff" data-fill-palette-color="quaternary"></path><path d="M38.537 48.292c-0.529-0.467-1.025-0.962-1.486-1.483C37.512 47.329 38.007 47.824 38.537 48.292z" fill="#ffffff" data-fill-palette-color="quaternary"></path><path d="M33.677 29.599c0.106-0.3 0.218-0.599 0.341-0.895C33.895 29.001 33.784 29.299 33.677 29.599z" fill="#ffffff" data-fill-palette-color="quaternary"></path><path d="M33.333 30.683c0.08-0.288 0.171-0.572 0.267-0.856C33.504 30.111 33.415 30.396 33.333 30.683z" fill="#ffffff" data-fill-palette-color="quaternary"></path><path d="M39.867 21.318c0.551-0.397 1.123-0.761 1.711-1.088C40.989 20.558 40.417 20.92 39.867 21.318z" fill="#ffffff" data-fill-palette-color="quaternary"></path><path d="M50.615 18.049c-0.686-0.024-1.372-0.004-2.053 0.054 0.479-0.041 0.958-0.063 1.441-0.063C50.207 18.04 50.41 18.043 50.615 18.049z" fill="#ffffff" data-fill-palette-color="quaternary"></path><path d="M37.391 23.483c0.288-0.306 0.585-0.601 0.892-0.882C37.977 22.882 37.679 23.177 37.391 23.483z" fill="#ffffff" data-fill-palette-color="quaternary"></path><path d="M52.487 18.216c0.165 0.024 0.329 0.052 0.496 0.08C52.816 18.268 52.652 18.24 52.487 18.216z" fill="#ffffff" data-fill-palette-color="quaternary"></path><path d="M51.388 18.089c0.178 0.014 0.354 0.038 0.531 0.057C51.742 18.125 51.565 18.103 51.388 18.089z" fill="#ffffff" data-fill-palette-color="quaternary"></path><path d="M48.523 18.105c-2.388 0.207-4.713 0.907-6.821 2.057C43.81 19.014 46.137 18.313 48.523 18.105z" fill="#ffffff" data-fill-palette-color="quaternary"></path><path d="M53.625 18.421c0.14 0.03 0.278 0.059 0.419 0.092C53.903 18.479 53.765 18.451 53.625 18.421z" fill="#ffffff" data-fill-palette-color="quaternary"></path><path d="M39.568 21.54c-0.196 0.147-0.39 0.298-0.58 0.455 0.066-0.055 0.131-0.109 0.198-0.164C39.312 21.732 39.44 21.636 39.568 21.54z" fill="#ffffff" data-fill-palette-color="quaternary"></path><path d="M48.343 21.932c-1.819 2.538-3.816 5.327-6.914 7.508 0.267 0.673 0.556 1.356 0.863 2.048 0.199 0.449 0.408 0.899 0.623 1.351 6.059-4.366 13.425-7.909 20.652-8.235-1.313-1.666-2.95-3.116-4.895-4.241-0.575-0.333-1.162-0.63-1.758-0.891-0.003-0.001-0.006-0.002-0.01-0.004-0.293-0.127-0.587-0.246-0.883-0.356-0.01-0.004-0.02-0.008-0.03-0.011-0.295-0.11-0.594-0.21-0.893-0.302 0 0-0.001-0.001-0.002-0.001-0.35-0.108-0.701-0.201-1.054-0.286-0.141-0.033-0.279-0.062-0.419-0.092-0.215-0.044-0.428-0.088-0.642-0.125-0.167-0.028-0.331-0.056-0.496-0.08-0.189-0.027-0.379-0.049-0.568-0.07-0.177-0.019-0.354-0.043-0.531-0.057-0.002 0-0.003-0.001-0.005-0.001C50.322 19.175 49.36 20.513 48.343 21.932z" fill="#ffffff" data-fill-palette-color="quaternary"></path><path d="M56.681 51.284c-0.654-0.413-1.295-0.855-1.919-1.329-3.886-2.951-7.225-7.026-9.88-11.323-2.704 2.107-3.285 5.271-2.987 8.378 0.132 1.377 0.435 2.742 0.805 4.006C47.232 53.131 52.306 53.111 56.681 51.284z" fill="#ffffff" data-fill-palette-color="quaternary"></path><path d="M43.485 33.718c-0.035 0.023-0.07 0.051-0.104 0.074 0.56 1.118 1.17 2.241 1.825 3.353 5.125-3 14.742-0.129 21.677 1.976 1.046-4.674 0.083-9.574-2.563-13.493C57.086 25.73 49.61 29.297 43.485 33.718z" fill="#ffffff" data-fill-palette-color="quaternary"></path><path d="M45.747 38.042c2.596 4.215 5.858 8.205 9.648 11.082 0.786 0.597 1.596 1.143 2.425 1.634 1.871-0.944 3.583-2.235 5.03-3.841 0.038-0.043 0.077-0.086 0.115-0.13 0.185-0.209 0.363-0.424 0.538-0.644 0.05-0.063 0.102-0.125 0.151-0.188 0.206-0.267 0.408-0.539 0.601-0.82 0.017-0.022 0.031-0.044 0.046-0.067 0.233-0.343 0.457-0.695 0.669-1.06 0.36-0.622 0.677-1.259 0.951-1.903 0.003-0.004 0.003-0.008 0.005-0.012 0.127-0.302 0.245-0.607 0.354-0.913 0.021-0.054 0.039-0.113 0.06-0.167 0.096-0.273 0.184-0.548 0.264-0.826 0.007-0.018 0.013-0.036 0.018-0.054C59.872 38.083 50.486 35.271 45.747 38.042z" fill="#ffffff" data-fill-palette-color="quaternary"></path><path d="M33.7 41.102c2.205-2.493 5.07-5.172 8.356-7.632-0.25-0.521-0.491-1.04-0.72-1.554-0.282-0.634-0.548-1.263-0.796-1.885-3.229 2.026-5.639 2.288-7.476 1.775C32.415 34.935 32.658 38.153 33.7 41.102z" fill="#ffffff" data-fill-palette-color="quaternary"></path><path d="M40.152 29.037c-0.877-2.333-1.502-4.531-1.858-6.447-0.003 0.003-0.007 0.007-0.011 0.011-0.307 0.281-0.604 0.577-0.892 0.882-0.008 0.008-0.016 0.016-0.023 0.025-0.57 0.609-1.1 1.266-1.587 1.97-0.026 0.037-0.05 0.073-0.076 0.11-0.236 0.347-0.463 0.703-0.677 1.072-0.184 0.317-0.356 0.639-0.518 0.964-0.014 0.027-0.026 0.055-0.04 0.082-0.147 0.298-0.284 0.6-0.413 0.903-0.013 0.032-0.026 0.063-0.039 0.095-0.124 0.296-0.235 0.595-0.341 0.895-0.026 0.076-0.052 0.152-0.077 0.227-0.096 0.285-0.187 0.569-0.267 0.856-0.003 0.013-0.009 0.027-0.013 0.041C34.982 31.19 37.178 30.942 40.152 29.037z" fill="#ffffff" data-fill-palette-color="quaternary"></path><path d="M41.04 28.433c2.841-2.063 4.733-4.704 6.456-7.111 0.843-1.175 1.648-2.295 2.507-3.282-0.482 0.001-0.962 0.023-1.441 0.063-0.014 0.001-0.026 0.002-0.039 0.002-2.386 0.208-4.713 0.909-6.821 2.057-0.042 0.022-0.083 0.045-0.124 0.068-0.589 0.327-1.16 0.69-1.711 1.088-0.101 0.072-0.2 0.147-0.298 0.222-0.128 0.096-0.256 0.192-0.382 0.291C39.5 23.722 40.128 25.988 41.04 28.433z" fill="#ffffff" data-fill-palette-color="quaternary"></path><path d="M41.439 50.367c-0.267-1.048-0.481-2.147-0.587-3.257-0.331-3.467 0.346-7.012 3.484-9.38-0.648-1.097-1.252-2.203-1.81-3.306-3.355 2.528-6.248 5.268-8.404 7.769 0.709 1.649 1.679 3.195 2.888 4.571 0.014 0.015 0.026 0.03 0.041 0.044 0.46 0.521 0.957 1.016 1.486 1.483 0.048 0.042 0.095 0.083 0.143 0.125 0.258 0.223 0.52 0.441 0.794 0.649 0.04 0.031 0.081 0.062 0.123 0.094 0.153 0.115 0.309 0.228 0.466 0.339 0.052 0.036 0.104 0.072 0.157 0.107 0.16 0.11 0.321 0.218 0.485 0.324 0.016 0.009 0.032 0.019 0.047 0.028 0.188 0.119 0.379 0.236 0.574 0.348C41.363 50.328 41.402 50.346 41.439 50.367z" fill="#ffffff" data-fill-palette-color="quaternary"></path></g></g></svg></g></svg></g></svg></g></svg></g><g></g></svg></g><defs></defs></svg><rect width="385.0510050055623" height="247.2" fill="none" stroke="none" visibility="hidden"></rect></g></svg></g></svg>